<svg width="23" height="26" viewBox="0 0 23 26" fill="none" xmlns="http://www.w3.org/2000/svg">
<path d="M5.11111 11.5H7.66667V14.0556H5.11111V11.5ZM23 5.11111V23C23 24.4056 21.85 25.5556 20.4444 25.5556H2.55556C1.13722 25.5556 0 24.4056 0 23L0.0127778 5.11111C0.0127778 3.70556 1.13722 2.55556 2.55556 2.55556H3.83333V0H6.38889V2.55556H16.6111V0H19.1667V2.55556H20.4444C21.85 2.55556 23 3.70556 23 5.11111ZM2.55556 7.66667H20.4444V5.11111H2.55556V7.66667ZM20.4444 23V10.2222H2.55556V23H20.4444ZM15.3333 14.0556H17.8889V11.5H15.3333V14.0556ZM10.2222 14.0556H12.7778V11.5H10.2222V14.0556Z" fill="#595656"/>
</svg>
