<svg width="26" height="26" viewBox="0 0 26 26" xmlns="http://www.w3.org/2000/svg">
    <path d="M25.233 12.454L13.533 0.754C13.065 0.286 12.415 0 11.7 0H2.6C1.17 0 0 1.17 0 2.6V11.7C0 12.415 0.286 13.065 0.767 13.546L12.467 25.246C12.935 25.714 13.585 26 14.3 26C15.015 26 15.665 25.714 16.133 25.233L25.233 16.133C25.714 15.665 26 15.015 26 14.3C26 13.585 25.701 12.922 25.233 12.454ZM14.3 23.413L2.6 11.7V2.6H11.7V2.587L23.4 14.287L14.3 23.413Z" fill="#595656"/>
    <path d="M5.85002 7.80002C6.92698 7.80002 7.80002 6.92698 7.80002 5.85002C7.80002 4.77307 6.92698 3.90002 5.85002 3.90002C4.77307 3.90002 3.90002 4.77307 3.90002 5.85002C3.90002 6.92698 4.77307 7.80002 5.85002 7.80002Z" fill="#595656"/>
</svg>
