<svg width="41" height="35" viewBox="0 0 41 35" fill="none" xmlns="http://www.w3.org/2000/svg">
<path d="M29.1347 8.63214L24.7153 16.2868L29.243 15.0736C30.5816 20.0692 27.6096 25.217 22.6139 26.5556C21.0896 26.964 19.5396 26.9749 18.1049 26.6314L16.4918 29.4254C18.6636 30.1052 21.0532 30.209 23.4227 29.5741C30.0937 27.7866 34.049 20.9357 32.2616 14.2648L36.7893 13.0516L29.1347 8.63214ZM11.1319 19.9264C9.79336 14.9308 12.7654 9.78304 17.7611 8.44446C19.2854 8.03601 20.8354 8.02509 22.2701 8.3686L23.8832 5.57465C21.7113 4.89485 19.3218 4.79102 16.9523 5.42594C10.2813 7.21341 6.32595 14.0643 8.11342 20.7352L3.58564 21.9485L11.2403 26.3679L15.6597 18.7132L11.1319 19.9264Z" fill="#595656"/>
</svg>
